<?xml version="1.0" encoding="UTF-8"?>
<svg width="114px" height="94px" viewBox="0 0 114 94" version="1.1" xmlns="http://www.w3.org/2000/svg" xmlns:xlink="http://www.w3.org/1999/xlink">
    <!-- Generator: Sketch 48.2 (47327) - http://www.bohemiancoding.com/sketch -->
    <title>logo</title>
    <desc>Created with Sketch.</desc>
    <defs></defs>
    <g id="Page-1" stroke="none" stroke-width="1" fill="none" fill-rule="evenodd">
        <g id="logo">
            <g id="noun_1482396_cc-copy" fill="#ffffff" fill-rule="nonzero">
                <path d="M111.859265,43.7263682 L88.8776967,43.7263682 L88.8776967,2.33830846 C88.8776967,0.935323383 87.9396736,0 86.5326388,0 L2.34505796,0 C0.938023185,0 0,0.935323383 0,2.33830846 L0,61.9651741 C0,63.3681592 0.938023185,64.3034826 2.34505796,64.3034826 L43.6180781,64.3034826 L38.2244448,79.2686567 C37.989939,80.2039801 38.2244448,81.1393035 38.9279622,81.840796 C39.3969738,82.0746269 39.8659853,82.3084577 40.3349969,82.3084577 C40.8040085,82.3084577 41.2730201,82.3084577 41.5075259,82.0746269 L60.2679896,70.6169154 L60.2679896,81.1393035 C60.2679896,82.5422886 61.2060128,83.4776119 62.6130476,83.4776119 L71.7587736,83.4776119 L88.4086851,93.7661692 C88.8776967,94 89.1122025,94 89.5812141,94 C90.0502257,94 90.5192373,93.7661692 90.9882489,93.5323383 C91.6917663,92.8308458 92.1607779,91.8955224 91.6917663,90.960199 L88.8776967,83.4776119 L111.624759,83.4776119 C113.031794,83.4776119 113.969817,82.5422886 113.969817,81.1393035 L113.969817,46.0646766 C114.204323,44.8955224 113.031794,43.7263682 111.859265,43.7263682 Z M49.0117114,60.5621891 C48.5426998,59.8606965 47.8391824,59.6268657 47.135665,59.6268657 L4.92462172,59.6268657 L4.92462172,4.67661692 L84.1875808,4.67661692 L84.1875808,59.6268657 L69.8827273,59.6268657 C69.4137157,59.6268657 68.9447041,59.8606965 68.7101983,59.8606965 L44.7906071,74.358209 L49.0117114,62.6666667 C49.480723,61.9651741 49.2462172,61.2636816 49.0117114,60.5621891 Z M109.514207,78.800995 L85.8291214,78.800995 C85.125604,78.800995 84.4220866,79.2686567 83.953075,79.7363184 C83.4840634,80.4378109 83.4840634,81.1393035 83.7185692,81.840796 L85.3601098,86.0497512 L73.8693258,79.0348259 C73.4003142,78.800995 73.1658084,78.800995 72.6967968,78.800995 L65.1926113,78.800995 L65.1926113,67.5771144 L70.5862446,64.3034826 L86.5326388,64.3034826 C87.9396736,64.3034826 88.8776967,63.3681592 88.8776967,61.9651741 L88.8776967,48.6368159 L109.514207,48.6368159 L109.514207,78.800995 Z" id="Shape"></path>
            </g>
            <g id="noun_114746_cc" transform="translate(14.000000, 14.000000)" fill="#ffffff">
                <polygon id="Shape" points="14.3521595 31.3703704 0 18 14.3521595 4.62962963 17.1428571 7.22942387 5.58139535 18 17.1428571 28.7705761"></polygon>
                <polygon id="Shape" fill-rule="nonzero" points="45.6478405 31.3703704 42.8571429 28.7705761 54.4186047 18 42.8571429 7.22942387 45.6478405 4.62962963 60 18"></polygon>
                <rect id="Rectangle-path" fill-rule="nonzero" transform="translate(29.285714, 18.000000) rotate(27.828460) translate(-29.285714, -18.000000) " x="27.1428571" y="-1" width="4.28571429" height="38"></rect>
            </g>
        </g>
    </g>
</svg>